<svg xmlns="http://www.w3.org/2000/svg" width="1080" height="1080" viewBox="0 0 1080 1080">
  <defs>
    <radialGradient id="bg" cx="50%" cy="50%" r="55%">
      <stop offset="0%" stop-color="#04141a"/>
      <stop offset="55%" stop-color="#020a10"/>
      <stop offset="100%" stop-color="#000000"/>
    </radialGradient>
    <radialGradient id="core" cx="50%" cy="50%" r="22%">
      <stop offset="0%" stop-color="#001f1c" stop-opacity="1"/>
      <stop offset="60%" stop-color="#011a18" stop-opacity="0.85"/>
      <stop offset="100%" stop-color="#000000" stop-opacity="0"/>
    </radialGradient>
    <radialGradient id="rim" cx="50%" cy="50%" r="50%">
      <stop offset="80%" stop-color="rgba(0,200,220,0)" />
      <stop offset="98%" stop-color="rgba(0,200,220,0.35)" />
      <stop offset="100%" stop-color="rgba(0,200,220,0)" />
    </radialGradient>
    <filter id="soft" x="-20%" y="-20%" width="140%" height="140%">
      <feGaussianBlur stdDeviation="0.6"/>
    </filter>
  </defs>

  <rect width="1080" height="1080" fill="url(#bg)"/>
  <g><circle cx="1076.0779028558457" cy="157.99029167344753" r="0.6670020199819359" fill="#ffffff" opacity="0.25247024553403696" /><circle cx="285.43030974277923" cy="197.31030761390295" r="0.06500890521721892" fill="#ffffff" opacity="0.2200322372017558" /><circle cx="388.85941227955163" cy="244.86290661502437" r="0.7435083118739056" fill="#ffffff" opacity="0.44141311193698995" /><circle cx="356.62580357456505" cy="423.8596580222359" r="0.7744801843955192" fill="#ffffff" opacity="0.37144063289836926" /><circle cx="864.7089765695505" cy="103.77850955198187" r="0.7821978357823471" fill="#ffffff" opacity="0.621210138411021" /><circle cx="143.16330329075026" cy="794.8319521810596" r="0.6397177267607193" fill="#ffffff" opacity="0.3701369582683871" /><circle cx="964.8263938217094" cy="896.7313617568237" r="0.7116943887307404" fill="#ffffff" opacity="0.6990581606209484" /><circle cx="580.2382627722119" cy="421.2991299656028" r="0.13043259962496778" fill="#ffffff" opacity="0.4691988917828813" /><circle cx="1021.5212856478051" cy="778.606408198219" r="0.018056277968407544" fill="#ffffff" opacity="0.379771356451612" /><circle cx="820.0763858767579" cy="78.85328223753801" r="0.3386259054419315" fill="#ffffff" opacity="0.5770622977610613" /><circle cx="439.16982866764687" cy="60.23121188580013" r="0.23945588492237244" fill="#ffffff" opacity="0.6784628034155834" /><circle cx="810.0929562829728" cy="895.9261164285111" r="0.8210971279209147" fill="#ffffff" opacity="0.5347855061586622" /><circle cx="0.30848576639256997" cy="766.6407978268451" r="0.43017299911658374" fill="#ffffff" opacity="0.35318386943642915" /><circle cx="761.9001758634527" cy="672.1411167177233" r="0.9556177563263252" fill="#ffffff" opacity="0.26064452934844834" /><circle cx="33.43647450384224" cy="673.1302894777622" r="0.914291981380811" fill="#ffffff" opacity="0.20668026696341635" /><circle cx="18.319379604058852" cy="443.6115055693944" r="0.7654978107992636" fill="#ffffff" opacity="0.24242270037681563" /><circle cx="179.20090182016034" cy="174.0369671540173" r="0.6376267970099314" fill="#ffffff" opacity="0.5842050716218042" /><circle cx="200.10731922293976" cy="660.1965838383659" r="0.8688031936290673" fill="#ffffff" opacity="0.5348141305913576" /><circle cx="982.2066426616364" cy="395.22690378300354" r="0.130114964925756" fill="#ffffff" opacity="0.2624106144701889" /><circle cx="641.6247282369256" cy="1004.6412666034868" r="0.6024031727725865" fill="#ffffff" opacity="0.3992043871279208" /><circle cx="550.4905383970523" cy="1036.8841215467376" r="0.37998471326130123" fill="#ffffff" opacity="0.2789422108229505" /><circle cx="985.6709490067246" cy="80.26334397178282" r="0.4609520348146629" fill="#ffffff" opacity="0.5041818672766876" /><circle cx="82.89543619091536" cy="1049.0228599856666" r="0.6741854924243277" fill="#ffffff" opacity="0.25634823269009455" /><circle cx="841.5043188014915" cy="740.7470524741907" r="0.025808975276391966" fill="#ffffff" opacity="0.5438647449032459" /><circle cx="340.523459120923" cy="980.4034897543654" r="0.15636696498294053" fill="#ffffff" opacity="0.25771540513967645" /><circle cx="823.7335941174074" cy="149.7074306333622" r="0.17344617378701546" fill="#ffffff" opacity="0.628575445039159" /><circle cx="976.3259799413845" cy="565.9609586366045" r="0.7750358242490484" fill="#ffffff" opacity="0.6950048809489484" /><circle cx="971.6156267982135" cy="649.6764935992763" r="0.6087253499380529" fill="#ffffff" opacity="0.4710268270620014" /><circle cx="571.6576843202205" cy="1069.8457927673833" r="0.2757197798034692" fill="#ffffff" opacity="0.4909326357272667" /><circle cx="789.1434564281892" cy="918.4373711490048" r="0.3282551528684921" fill="#ffffff" opacity="0.2634048408011556" /><circle cx="581.5149175341055" cy="382.8827126906384" r="0.5683150023536457" fill="#ffffff" opacity="0.3567728255814956" /><circle cx="1049.2136274090828" cy="2.2833956264066835" r="1.0560018849469797" fill="#ffffff" opacity="0.3101473451539131" /><circle cx="1015.8933900704769" cy="3.5361106191716463" r="0.37057762311791953" fill="#ffffff" opacity="0.22484305815672284" /><circle cx="405.13456905298983" cy="391.1940720875889" r="0.710241730403811" fill="#ffffff" opacity="0.300541579197419" /><circle cx="296.8700455801069" cy="895.2630423911207" r="1.0006110939108495" fill="#ffffff" opacity="0.5891300549361391" /><circle cx="354.6492913838476" cy="976.4693225442832" r="0.5494820092657253" fill="#ffffff" opacity="0.464302439935204" /><circle cx="180.65319151254036" cy="385.1798011311217" r="0.16422018726595453" fill="#ffffff" opacity="0.22611121166135562" /><circle cx="528.0296234926925" cy="550.9846049367228" r="0.25987711444554923" fill="#ffffff" opacity="0.5807850769004087" /><circle cx="604.9958181972609" cy="1074.7630878303205" r="1.056195624931964" fill="#ffffff" opacity="0.5953427526633687" /><circle cx="127.20199839748523" cy="509.48380087360687" r="0.5899835622137802" fill="#ffffff" opacity="0.29458814605726885" /><circle cx="465.5162798247154" cy="530.0158918093945" r="0.03327863062510472" fill="#ffffff" opacity="0.47881562450454046" /><circle cx="524.2231982461205" cy="830.4190193673759" r="0.8265685104120405" fill="#ffffff" opacity="0.33090963837467624" /><circle cx="864.1750831128766" cy="284.73701757493996" r="0.09243154078125108" fill="#ffffff" opacity="0.6243094659792376" /><circle cx="445.604650576181" cy="628.1441870922904" r="0.3698190375025155" fill="#ffffff" opacity="0.5869938861625303" /><circle cx="1048.769226266323" cy="1046.0468112562291" r="1.0905961139610176" fill="#ffffff" opacity="0.2633613090212819" /><circle cx="841.7227781621247" cy="266.945866846534" r="0.5494844652023402" fill="#ffffff" opacity="0.585104806522321" /><circle cx="644.2192870898973" cy="684.7827671894189" r="0.9114036592156024" fill="#ffffff" opacity="0.34291311786084044" /><circle cx="669.8782273251122" cy="583.8248103242953" r="0.7432507624665569" fill="#ffffff" opacity="0.6674728982521019" /><circle cx="207.1077494558784" cy="625.6640424978216" r="0.905943598000676" fill="#ffffff" opacity="0.36760594101657895" /><circle cx="439.7023259792006" cy="266.70873783790756" r="0.7427611568261241" fill="#ffffff" opacity="0.20231573423285543" /><circle cx="982.3567261427623" cy="733.3067950628359" r="0.38160206412856923" fill="#ffffff" opacity="0.549524514729263" /><circle cx="669.580623113156" cy="704.9247679464626" r="0.4372709389896081" fill="#ffffff" opacity="0.45880541054940777" /><circle cx="759.5118999255188" cy="113.52041945662181" r="0.10479608586193323" fill="#ffffff" opacity="0.692462753943114" /><circle cx="777.7293382432582" cy="865.4365658186211" r="0.9217483526057011" fill="#ffffff" opacity="0.5873143712789402" /><circle cx="530.2774121549083" cy="566.4465260965613" r="0.4721023017416355" fill="#ffffff" opacity="0.2635503407283447" /><circle cx="427.71532650288566" cy="298.1065480411387" r="0.9244422021456082" fill="#ffffff" opacity="0.43043470933666594" /><circle cx="696.491192914967" cy="814.0261540282179" r="0.3722996974418564" fill="#ffffff" opacity="0.6251959509889641" /><circle cx="581.7904507242532" cy="574.2181006016634" r="0.7405082996218699" fill="#ffffff" opacity="0.364511945201177" /><circle cx="782.5924489634842" cy="867.2235078447778" r="0.5331354778334003" fill="#ffffff" opacity="0.6096570239031447" /><circle cx="768.3405013376996" cy="928.4670437797473" r="0.9236796511530571" fill="#ffffff" opacity="0.31102975584347226" /><circle cx="223.51493873472566" cy="536.148234133602" r="0.05129834289770647" fill="#ffffff" opacity="0.6313139080808055" /><circle cx="581.7301129993026" cy="440.27966250838773" r="0.9516795588849527" fill="#ffffff" opacity="0.6529437019517743" /><circle cx="610.3666160366282" cy="956.6335667096839" r="0.21121147741797267" fill="#ffffff" opacity="0.44522594697942086" /><circle cx="904.3688599785705" cy="154.00968130008258" r="0.5130276411317503" fill="#ffffff" opacity="0.4654007570876982" /><circle cx="46.080519731124376" cy="874.4134759500365" r="0.06280544676290561" fill="#ffffff" opacity="0.675558709969333" /><circle cx="721.6751154415232" cy="747.3753433486694" r="0.09631790556189475" fill="#ffffff" opacity="0.29474656540206634" /><circle cx="639.9388108466018" cy="734.5678327911477" r="0.7981649222229408" fill="#ffffff" opacity="0.6342852704041506" /><circle cx="261.62344193161" cy="434.0362892573339" r="1.0336062340404835" fill="#ffffff" opacity="0.4518680744333589" /><circle cx="734.3313048231071" cy="432.12849927371997" r="0.3287256922086556" fill="#ffffff" opacity="0.6932932161010914" /><circle cx="857.9593754051326" cy="1076.9295079764315" r="0.3140353008922918" fill="#ffffff" opacity="0.4599790811761203" /><circle cx="679.8067880385969" cy="753.210586993729" r="0.9077827368973709" fill="#ffffff" opacity="0.2690641558191664" /><circle cx="835.6900105547187" cy="195.75934614327466" r="0.047382185146965496" fill="#ffffff" opacity="0.6797412643098981" /><circle cx="693.7880829754075" cy="270.78896473206066" r="0.9832807305307535" fill="#ffffff" opacity="0.49882879508085165" /><circle cx="996.9095723970454" cy="838.7803647265266" r="0.6425919319437234" fill="#ffffff" opacity="0.610956055208681" /><circle cx="1021.3565311167758" cy="373.6451232383008" r="0.558948740305299" fill="#ffffff" opacity="0.2356178154983209" /><circle cx="1002.5670492239121" cy="771.9980704341893" r="1.034266607607924" fill="#ffffff" opacity="0.271124636135281" /><circle cx="657.7407329189464" cy="555.4805819767943" r="0.5948949026428477" fill="#ffffff" opacity="0.2247417848449343" /><circle cx="957.0759131852611" cy="223.9534480032403" r="0.5105734219838696" fill="#ffffff" opacity="0.4602937683730123" /><circle cx="1046.9975053655241" cy="963.3974988853092" r="0.71815886556146" fill="#ffffff" opacity="0.34142358561227215" /><circle cx="509.79702945074655" cy="391.1196870557057" r="0.29420341407604816" fill="#ffffff" opacity="0.2760863568224439" /></g>

  <g filter="url(#soft)"><g stroke="#00C8DC" stroke-opacity="0.22957036198280495" stroke-width="1.1702215872518824"><ellipse cx="540" cy="540" rx="130" ry="113.33757903069323" transform="rotate(-12.374015282255968 540 540)" fill="none" /></g><g stroke="#00C8DC" stroke-opacity="0.28948613178932403" stroke-width="0.707909057275677"><ellipse cx="540" cy="540" rx="138.88888888888889" ry="122.98046505447873" transform="rotate(14.728121917972743 540 540)" fill="none" /></g><g stroke="#00C8DC" stroke-opacity="0.2115914924182925" stroke-width="0.7537120505573407"><ellipse cx="540" cy="540" rx="147.77777777777777" ry="92.22109280773448" transform="rotate(-12.75383296107313 540 540)" fill="none" /></g><g stroke="#00C8DC" stroke-opacity="0.26187614586410823" stroke-width="0.9042020438687575"><ellipse cx="540" cy="540" rx="156.66666666666666" ry="106.7383370910054" transform="rotate(-42.607378201841435 540 540)" fill="none" /></g><g stroke="#00C8DC" stroke-opacity="0.1847530274459271" stroke-width="0.8312223640820261"><ellipse cx="540" cy="540" rx="165.55555555555554" ry="116.30962883649588" transform="rotate(6.676465152112989 540 540)" fill="none" /></g><g stroke="#00C8DC" stroke-opacity="0.30435275944146467" stroke-width="0.9466379976966189"><ellipse cx="540" cy="540" rx="174.44444444444446" ry="115.69852353522127" transform="rotate(9.502134812373754 540 540)" fill="none" /></g><g stroke="#00C8DC" stroke-opacity="0.20941794247564186" stroke-width="0.756236826980552"><ellipse cx="540" cy="540" rx="183.33333333333331" ry="161.5461184533209" transform="rotate(-3.531859560577047 540 540)" fill="none" /></g><g stroke="#00C8DC" stroke-opacity="0.30757339152388524" stroke-width="1.077127182318042"><ellipse cx="540" cy="540" rx="192.22222222222223" ry="181.52105153927093" transform="rotate(-25.89204553749728 540 540)" fill="none" /></g><g stroke="#00C8DC" stroke-opacity="0.3078899878067885" stroke-width="1.0967491115932515"><ellipse cx="540" cy="540" rx="201.11111111111111" ry="136.58190635402346" transform="rotate(12.239817577862233 540 540)" fill="none" /></g><g stroke="#00C8DC" stroke-opacity="0.3590039082055907" stroke-width="1.1576307281966307"><ellipse cx="540" cy="540" rx="210" ry="181.26690367062062" transform="rotate(44.99878846075549 540 540)" fill="none" /></g><g stroke="#00C8DC" stroke-opacity="0.2364873856447875" stroke-width="1.1062928873356048"><ellipse cx="540" cy="540" rx="218.88888888888889" ry="179.15634201290766" transform="rotate(-2.0825317957210174 540 540)" fill="none" /></g><g stroke="#00C8DC" stroke-opacity="0.362207272102416" stroke-width="0.9584328860005364"><ellipse cx="540" cy="540" rx="227.77777777777777" ry="144.07723542379466" transform="rotate(30.645588785299296 540 540)" fill="none" /></g><g stroke="#00C8DC" stroke-opacity="0.2771381090161136" stroke-width="0.8004132453229247"><ellipse cx="540" cy="540" rx="236.66666666666666" ry="222.8532373775606" transform="rotate(-2.921935081094965 540 540)" fill="none" /></g><g stroke="#00C8DC" stroke-opacity="0.2901057449202204" stroke-width="0.9274317540276753"><ellipse cx="540" cy="540" rx="245.55555555555554" ry="187.4084629196459" transform="rotate(-21.423687266343453 540 540)" fill="none" /></g><g stroke="#7ABF6F" stroke-opacity="0.3820671415375765" stroke-width="0.9642075628315381"><ellipse cx="540" cy="540" rx="254.44444444444446" ry="199.75077878416374" transform="rotate(11.002833616630241 540 540)" fill="none" /></g><g stroke="#7ABF6F" stroke-opacity="0.23634129039504745" stroke-width="1.063786564883968"><ellipse cx="540" cy="540" rx="263.33333333333337" ry="238.84356536497918" transform="rotate(31.486852512290213 540 540)" fill="none" /></g><g stroke="#7ABF6F" stroke-opacity="0.316200273084283" stroke-width="1.088152238604612"><ellipse cx="540" cy="540" rx="272.22222222222223" ry="171.67487086641427" transform="rotate(16.82376890616318 540 540)" fill="none" /></g><g stroke="#7ABF6F" stroke-opacity="0.2853911794365674" stroke-width="1.1994060426726674"><ellipse cx="540" cy="540" rx="281.1111111111111" ry="263.31544985474574" transform="rotate(-18.369338342997764 540 540)" fill="none" /></g><g stroke="#7ABF6F" stroke-opacity="0.2595527581445745" stroke-width="1.0301788753910037"><ellipse cx="540" cy="540" rx="290" ry="200.4989431557547" transform="rotate(-5.164494725552352 540 540)" fill="none" /></g><g stroke="#7ABF6F" stroke-opacity="0.41034528684597615" stroke-width="1.11632685428983"><ellipse cx="540" cy="540" rx="298.8888888888889" ry="258.8128622674914" transform="rotate(7.661334415007062 540 540)" fill="none" /></g><g stroke="#7ABF6F" stroke-opacity="0.25490881734136384" stroke-width="0.8273532842158617"><ellipse cx="540" cy="540" rx="307.77777777777777" ry="186.30467834338754" transform="rotate(-10.55192552957135 540 540)" fill="none" /></g><g stroke="#7ABF6F" stroke-opacity="0.3165825852051958" stroke-width="0.6111590504927471"><ellipse cx="540" cy="540" rx="316.66666666666663" ry="217.2817071002196" transform="rotate(-13.202970214391726 540 540)" fill="none" /></g><g stroke="#7ABF6F" stroke-opacity="0.3333326804937372" stroke-width="0.7433434202782633"><ellipse cx="540" cy="540" rx="325.55555555555554" ry="255.75207130193974" transform="rotate(35.512099738745235 540 540)" fill="none" /></g><g stroke="#7ABF6F" stroke-opacity="0.3319700349781317" stroke-width="1.1665337572515246"><ellipse cx="540" cy="540" rx="334.44444444444446" ry="227.04539827009538" transform="rotate(-7.834662006443985 540 540)" fill="none" /></g><g stroke="#7ABF6F" stroke-opacity="0.2092159780152151" stroke-width="0.8609603932696617"><ellipse cx="540" cy="540" rx="343.3333333333333" ry="281.2361827092393" transform="rotate(27.558714614693358 540 540)" fill="none" /></g><g stroke="#7ABF6F" stroke-opacity="0.25396822002464803" stroke-width="0.9574834676553876"><ellipse cx="540" cy="540" rx="352.22222222222223" ry="317.36522514424644" transform="rotate(40.6218167740346 540 540)" fill="none" /></g><g stroke="#7ABF6F" stroke-opacity="0.343109688641974" stroke-width="0.8815319877020273"><ellipse cx="540" cy="540" rx="361.1111111111111" ry="221.81386604143418" transform="rotate(13.475512439796411 540 540)" fill="none" /></g><g stroke="#7ABF6F" stroke-opacity="0.3398946521753803" stroke-width="0.7551723712524886"><ellipse cx="540" cy="540" rx="370" ry="284.6167802064142" transform="rotate(-35.06749166309339 540 540)" fill="none" /></g></g>

  <circle cx="540" cy="540" r="105" fill="url(#core)" />
  <circle cx="540" cy="540" r="105" fill="none" stroke="#00C8DC" stroke-opacity="0.45" stroke-width="0.8"/>

  <g><line x1="543.1101320435223" y1="540.0354184852157" x2="593.4129547945895" y2="511.06582974579356" stroke="#00C8DC" stroke-opacity="0.35" stroke-width="0.6" /><line x1="576.9477303711656" y1="584.9169684459114" x2="553.4709763258171" y2="561.4568986731409" stroke="#00C8DC" stroke-opacity="0.35" stroke-width="0.6" /><line x1="539.8686951443948" y1="539.5866944124399" x2="527.5285827203855" y2="531.8022912753953" stroke="#00C8DC" stroke-opacity="0.35" stroke-width="0.6" /><line x1="585.0129509421487" y1="599.4311126190037" x2="541.626489496264" y2="546.8004546918255" stroke="#00C8DC" stroke-opacity="0.35" stroke-width="0.6" /><line x1="474.80705203322077" y1="523.778306550364" x2="489.46775104987404" y2="488.93456383824196" stroke="#00C8DC" stroke-opacity="0.35" stroke-width="0.6" /><line x1="520.7499849556592" y1="539.0735337491003" x2="481.05312436112683" y2="539.1813353722724" stroke="#00C8DC" stroke-opacity="0.35" stroke-width="0.6" /><line x1="604.8192670953598" y1="582.1767862091394" x2="593.579282779439" y2="594.2261883135918" stroke="#00C8DC" stroke-opacity="0.35" stroke-width="0.6" /><line x1="539.2386440183092" y1="536.5647976216543" x2="522.0134503331051" y2="509.29741065417966" stroke="#00C8DC" stroke-opacity="0.35" stroke-width="0.6" /><line x1="591.9965195003832" y1="551.1681505997086" x2="612.0394548030291" y2="535.0426392223204" stroke="#00C8DC" stroke-opacity="0.35" stroke-width="0.6" /><line x1="534.0355047850426" y1="541.8752959006612" x2="483.70302644892706" y2="556.6424518530165" stroke="#00C8DC" stroke-opacity="0.35" stroke-width="0.6" /><line x1="563.8105478282102" y1="543.7617593516164" x2="548.5928223451526" y2="541.4996576399367" stroke="#00C8DC" stroke-opacity="0.35" stroke-width="0.6" /><line x1="484.57411141225435" y1="574.6349611472633" x2="538.3375995130534" y2="540.484185653388" stroke="#00C8DC" stroke-opacity="0.35" stroke-width="0.6" /></g>
  <g><circle cx="573.7221212675873" cy="612.4968708122525" r="3.3109636101089923" fill="#00FFE0" opacity="0.5496998383389716" /><circle cx="524.1472331910788" cy="511.6879845241308" r="2.964318824889282" fill="#00FFE0" opacity="0.693019976703128" /><circle cx="459.70432727394297" cy="535.5161069677004" r="2.517132220177521" fill="#7CFC00" opacity="0.7639232233114255" /><circle cx="531.8519902215702" cy="568.599166958873" r="2.2651868225002088" fill="#00FFE0" opacity="0.6740610690802284" /><circle cx="535.8044360949353" cy="532.388421756984" r="2.1750432238612873" fill="#7CFC00" opacity="0.8051398057542956" /><circle cx="464.20185542878113" cy="533.6916317339638" r="2.3988813245928675" fill="#7CFC00" opacity="0.8542301854284207" /><circle cx="498.9557679336794" cy="503.12771512241363" r="2.9176974211491076" fill="#00FFE0" opacity="0.7583248584892222" /><circle cx="575.5798898933538" cy="493.6406320845194" r="2.68604100147106" fill="#00FFE0" opacity="0.6135574599078023" /><circle cx="575.1912914957788" cy="496.728057085547" r="2.475601143238607" fill="#7CFC00" opacity="0.5889156109704837" /><circle cx="569.3433536457751" cy="528.0024355932821" r="2.62839682392917" fill="#00FFE0" opacity="0.7261674400200123" /><circle cx="557.9886156784618" cy="504.4735511121929" r="1.1781629589196345" fill="#00FFE0" opacity="0.8948243907905007" /><circle cx="602.8033112680913" cy="487.5463458243652" r="1.5519143350944025" fill="#00FFE0" opacity="0.7199827736461867" /><circle cx="602.1331496420563" cy="525.880344485318" r="3.3320203054227813" fill="#00FFE0" opacity="0.754276597350672" /><circle cx="555.7212441867248" cy="542.524125823181" r="1.9297002712520233" fill="#00FFE0" opacity="0.8531446510795836" /><circle cx="525.5638708086313" cy="563.4031465594137" r="3.0233001834893867" fill="#7CFC00" opacity="0.5692604513092847" /><circle cx="492.69693785648514" cy="596.0250940716076" r="3.289727151468836" fill="#00FFE0" opacity="0.769046458274605" /><circle cx="481.7980824856208" cy="580.8121193889807" r="2.8813372933143655" fill="#7CFC00" opacity="0.5265007768656864" /><circle cx="575.9414444809433" cy="510.0793790192656" r="1.9586557799491577" fill="#00FFE0" opacity="0.6367420528639554" /><circle cx="548.9051415774663" cy="545.8600411152702" r="1.9322981054155015" fill="#7CFC00" opacity="0.7056430807757402" /><circle cx="455.47146812566746" cy="537.9486251232526" r="3.131489713499359" fill="#7CFC00" opacity="0.569929868541453" /><circle cx="523.8350089310287" cy="483.10072044229344" r="3.258045668431669" fill="#00FFE0" opacity="0.617180119776514" /><circle cx="542.8364355350806" cy="539.0613967063176" r="1.5894481470438242" fill="#7CFC00" opacity="0.6782074111937749" /></g>

  <circle cx="540" cy="540" r="453.59999999999997" fill="url(#rim)"/>
</svg>