<svg xmlns="http://www.w3.org/2000/svg" width="1200" height="630" viewBox="0 0 1200 630">
  <defs>
    <radialGradient id="glow" cx="50%" cy="40%" r="60%">
      <stop offset="0%" stop-color="#A100FF" stop-opacity="0.35" />
      <stop offset="60%" stop-color="#A100FF" stop-opacity="0.05" />
      <stop offset="100%" stop-color="#000000" stop-opacity="0" />
    </radialGradient>
    <linearGradient id="purpleLine" x1="0%" y1="0%" x2="100%" y2="0%">
      <stop offset="0%" stop-color="#A100FF" stop-opacity="0" />
      <stop offset="50%" stop-color="#A100FF" stop-opacity="1" />
      <stop offset="100%" stop-color="#A100FF" stop-opacity="0" />
    </linearGradient>
    <pattern id="grid" x="0" y="0" width="60" height="60" patternUnits="userSpaceOnUse">
      <path d="M 60 0 L 0 0 0 60" fill="none" stroke="#A100FF" stroke-width="1" stroke-opacity="0.05" />
    </pattern>
  </defs>

  <rect width="1200" height="630" fill="#000000" />
  <rect width="1200" height="630" fill="url(#grid)" />
  <rect width="1200" height="630" fill="url(#glow)" />

  <rect x="0" y="20" width="1200" height="2" fill="url(#purpleLine)" opacity="0.6" />
  <rect x="0" y="608" width="1200" height="2" fill="url(#purpleLine)" opacity="0.6" />

  <g transform="translate(80, 100)">
    <rect x="0" y="0" width="6" height="36" fill="#A100FF" />
    <text x="22" y="28" font-family="-apple-system, system-ui, sans-serif"
          font-size="20" font-weight="500" fill="#A100FF"
          letter-spacing="6">ABOUT A1</text>
  </g>

  <text x="80" y="290" font-family="-apple-system, system-ui, sans-serif"
        font-size="84" font-weight="700" fill="#ffffff" letter-spacing="-2">
    Global Cyber
  </text>
  <text x="80" y="390" font-family="-apple-system, system-ui, sans-serif"
        font-size="84" font-weight="700" fill="#A100FF" letter-spacing="-2">
    Resilience.
  </text>

  <text x="80" y="470" font-family="-apple-system, system-ui, sans-serif"
        font-size="28" font-weight="400" fill="#A2A2A0">
    Building enterprise-grade defenses since 2020.
  </text>

  <g transform="translate(80, 530)">
    <circle cx="6" cy="6" r="6" fill="#A100FF" />
    <text x="22" y="12" font-family="-apple-system, system-ui, sans-serif"
          font-size="16" font-weight="500" fill="#ffffff" letter-spacing="3">
      5 COUNTRIES · 30+ PARTNERS · 60+ PROJECTS
    </text>
  </g>

  <g transform="translate(920, 100)" opacity="0.5">
    <circle cx="100" cy="100" r="80" fill="none" stroke="#A100FF" stroke-width="1" stroke-opacity="0.3" />
    <circle cx="100" cy="100" r="120" fill="none" stroke="#A100FF" stroke-width="1" stroke-opacity="0.2" />
    <circle cx="100" cy="100" r="160" fill="none" stroke="#A100FF" stroke-width="1" stroke-opacity="0.1" />
    <circle cx="100" cy="100" r="6" fill="#A100FF" />
    <circle cx="180" cy="100" r="3" fill="#A100FF" opacity="0.8" />
    <circle cx="100" cy="220" r="3" fill="#A100FF" opacity="0.8" />
    <circle cx="20" cy="100" r="3" fill="#A100FF" opacity="0.8" />
    <circle cx="100" cy="-20" r="3" fill="#A100FF" opacity="0.8" />
    <line x1="100" y1="100" x2="180" y2="100" stroke="#A100FF" stroke-width="1" stroke-opacity="0.4" />
    <line x1="100" y1="100" x2="100" y2="220" stroke="#A100FF" stroke-width="1" stroke-opacity="0.4" />
    <line x1="100" y1="100" x2="20" y2="100" stroke="#A100FF" stroke-width="1" stroke-opacity="0.4" />
    <line x1="100" y1="100" x2="100" y2="-20" stroke="#A100FF" stroke-width="1" stroke-opacity="0.4" />
  </g>
</svg>